<svg xmlns="http://www.w3.org/2000/svg" version="1.1" xmlns:xlink="http://www.w3.org/1999/xlink" xmlns:svgjs="http://svgjs.dev/svgjs" width="1000" height="623" viewBox="0 0 1000 623"><g transform="matrix(1,0,0,1,-0.6060606060606233,0.2522267206477409)"><svg viewBox="0 0 396 247" data-background-color="#ffffff" preserveAspectRatio="xMidYMid meet" height="623" width="1000" xmlns="http://www.w3.org/2000/svg" xmlns:xlink="http://www.w3.org/1999/xlink"><g id="tight-bounds" transform="matrix(1,0,0,1,0.2400000000000091,-0.09999999999999432)"><svg viewBox="0 0 395.52 247.2" height="247.2" width="395.52"><g><svg></svg></g><g><svg viewBox="0 0 395.52 247.2" height="247.2" width="395.52"><g><path xmlns="http://www.w3.org/2000/svg" d="M55.039 247.2l35.38-61.28 0 13.136-23.796 41.216h262.274l-23.796-41.216v-13.136l35.38 61.28zM197.76 0l26.403 45.732-7.583 0-18.82-32.596-18.82 32.596-7.583 0z" fill="#77d4fc" fill-rule="nonzero" stroke="none" stroke-width="1" stroke-linecap="butt" stroke-linejoin="miter" stroke-miterlimit="10" stroke-dasharray="" stroke-dashoffset="0" font-family="none" font-weight="none" font-size="none" text-anchor="none" style="mix-blend-mode: normal" data-fill-palette-color="tertiary"></path></g><g transform="matrix(1,0,0,1,112.66681502086232,67.97999999999999)"><svg viewBox="0 0 170.18636995827535 111.24" height="111.24" width="170.18636995827535"><g><svg viewBox="0 0 170.18636995827535 111.24" height="111.24" width="170.18636995827535"><g><svg viewBox="0 0 170.18636995827535 111.24" height="111.24" width="170.18636995827535"><g id="textblocktransform"><svg viewBox="0 0 170.18636995827535 111.24" height="111.24" width="170.18636995827535" id="textblock"><g><svg viewBox="0 0 170.18636995827535 111.24" height="111.24" width="170.18636995827535"><g transform="matrix(1,0,0,1,0,0)"><svg width="170.18636995827535" viewBox="1.4500000476837158 -35.45000076293945 55 35.95000076293945" height="111.24" data-palette-color="#77d4fc"><path d="M3.8-12.2L3.8-12.2Q4.75-11.45 7.08-10.15 9.4-8.85 11.53-8.85 13.65-8.85 13.65-10.5L13.65-10.5Q13.65-11.25 13.05-11.83 12.45-12.4 10.85-13.15 9.25-13.9 8.45-14.33 7.65-14.75 6.33-15.73 5-16.7 4.3-17.75L4.3-17.75Q2.3-20.6 2.3-25 2.3-29.4 5.58-32.43 8.85-35.45 14.15-35.45L14.15-35.45Q17.75-35.45 20.8-34.68 23.85-33.9 23.95-32.65L23.95-32.65Q23.95-32.5 23.95-32.35L23.95-32.35Q23.95-30.6 22.85-27.93 21.75-25.25 21.3-24.95L21.3-24.95Q18.1-26.6 15.58-26.6 13.05-26.6 13.05-24.8L13.05-24.8Q13.05-23.7 14.9-22.85L14.9-22.85Q15.3-22.65 16.05-22.3 16.8-21.95 17.78-21.48 18.75-21 19.88-20.28 21-19.55 22.3-18.35L22.3-18.35Q24.95-15.85 24.95-11.75L24.95-11.75Q24.95-6.4 22-3 19.05 0.4 12.9 0.5L12.9 0.5Q9.9 0.5 7.48 0 5.05-0.5 3.25-1.95 1.45-3.4 1.45-5.45 1.45-7.5 2.2-9.53 2.95-11.55 3.8-12.2ZM56.45-34.05L56.45-1.1Q56.45-0.05 51.75-0.05 47.05-0.05 46.65-0.8L46.65-0.8 38.3-16.4 38.3-0.85Q38.3 0.05 33.67 0.05 29.05 0.05 29.05-0.85L29.05-0.85 29.05-34.3Q29.05-35.05 33-35.05L33-35.05Q34.55-35.05 36.62-34.77 38.7-34.5 39.15-33.75L39.15-33.75 47.15-18.35 47.15-34.05Q47.15-35 51.8-35 56.45-35 56.45-34.05L56.45-34.05Z" opacity="1" transform="matrix(1,0,0,1,0,0)" fill="#77d4fc" class="wordmark-text-0" data-fill-palette-color="primary" id="text-0"></path></svg></g></svg></g></svg></g></svg></g><g></g></svg></g></svg></g></svg></g><defs></defs></svg><rect width="395.52" height="247.2" fill="none" stroke="none" visibility="hidden"></rect></g></svg></g></svg>